<svg width="24" height="24" viewBox="0 0 24 24" fill="none" xmlns="http://www.w3.org/2000/svg">
<path d="M11.1566 5.68682H5.59035C5.16856 5.68682 4.76405 5.85437 4.4658 6.15262C4.16755 6.45087 4 6.85538 4 7.27717V18.4096C4 18.8314 4.16755 19.2359 4.4658 19.5342C4.76405 19.8324 5.16856 20 5.59035 20H16.7228C17.1446 20 17.5491 19.8324 17.8474 19.5342C18.1456 19.2359 18.3132 18.8314 18.3132 18.4096V12.8434M17.1204 4.49406C17.4368 4.17772 17.8658 4 18.3132 4C18.7606 4 19.1896 4.17772 19.5059 4.49406C19.8223 4.8104 20 5.23945 20 5.68682C20 6.1342 19.8223 6.56325 19.5059 6.87959L11.9518 14.4338L8.77106 15.2289L9.56624 12.0482L17.1204 4.49406Z" stroke="#01042E" stroke-width="2" stroke-linecap="round" stroke-linejoin="round"/>
</svg>
