<svg width="24" height="24" viewBox="0 0 24 24" fill="none" xmlns="http://www.w3.org/2000/svg">
<path d="M12 15.2852C12.9124 15.2852 13.6883 14.9658 14.327 14.327C14.9658 13.6883 15.2852 12.9124 15.2852 12C15.2852 11.0876 14.9658 10.3117 14.327 9.67298C13.6883 9.03425 12.9124 8.71477 12 8.71477C11.0876 8.71477 10.3117 9.03425 9.67298 9.67298C9.03425 10.3117 8.71477 11.0876 8.71477 12C8.71477 12.9124 9.03425 13.6883 9.67298 14.327C10.3117 14.9658 11.0876 15.2852 12 15.2852ZM12 13.9511C11.4578 13.9511 10.9974 13.7615 10.6179 13.3821C10.2385 13.0026 10.0489 12.5422 10.0489 12C10.0489 11.4578 10.2385 10.9974 10.6179 10.6179C10.9974 10.2385 11.4578 10.0489 12 10.0489C12.5422 10.0489 13.0026 10.2385 13.3821 10.6179C13.7615 10.9974 13.9511 11.4578 13.9511 12C13.9511 12.5422 13.7615 13.0026 13.3821 13.3821C13.0026 13.7615 12.5422 13.9511 12 13.9511ZM12 17.442C10.2328 17.442 8.62312 16.9488 7.17066 15.9624C5.71957 14.9769 4.66721 13.6562 4.01344 12C4.66721 10.3438 5.71957 9.02315 7.17066 8.03761C8.62312 7.05115 10.2328 6.55796 12 6.55796C13.7672 6.55796 15.3769 7.05115 16.8293 8.03761C18.2804 9.02315 19.3328 10.3438 19.9866 12C19.3328 13.6562 18.2804 14.9769 16.8293 15.9624C15.3769 16.9488 13.7672 17.442 12 17.442Z" fill="black" stroke="black" stroke-width="0.025"/>
</svg>
