<svg width="24" height="24" viewBox="0 0 24 24" fill="none" xmlns="http://www.w3.org/2000/svg">
<path d="M4.7998 7.19999H6.3998M6.3998 7.19999L19.1998 7.19999M6.3998 7.19999L6.39981 18.4C6.39981 18.8243 6.56838 19.2313 6.86844 19.5314C7.1685 19.8314 7.57546 20 7.99981 20H15.9998C16.4242 20 16.8311 19.8314 17.1312 19.5314C17.4312 19.2313 17.5998 18.8243 17.5998 18.4V7.2L6.3998 7.19999ZM8.79981 7.2V5.6C8.79981 5.17565 8.96838 4.76869 9.26844 4.46863C9.5685 4.16857 9.97546 4 10.3998 4L13.5998 4C14.0242 4 14.4311 4.16857 14.7312 4.46863C15.0312 4.76869 15.1998 5.17565 15.1998 5.6V7.2M10.3998 11.2V16M13.5998 11.2V16" stroke="#E35D6A" stroke-width="2" stroke-linecap="round" stroke-linejoin="round"/>
</svg>
